<svg xmlns="http://www.w3.org/2000/svg" width="18" height="14" viewBox="0 0 18 14"><path fill="#253756" d="M4.59 10.7h7.75a.42.42 0 0 0 0-.84H4.59a.42.42 0 0 0 0 .84zm0-2.7h7.75a.42.42 0 0 0 0-.84H4.59a.42.42 0 0 0 0 .85zM2.44 2.63a.33.33 0 0 0 0 .66.33.33 0 0 0 0-.66zm1.36 0a.33.33 0 1 0 0 .66.33.33 0 0 0 0-.66zm12.36 1.42H.84V2.02c0-.1.08-.18.18-.18h14.96c.1 0 .18.08.18.18zm0 8.94c0 .1-.08.18-.18.18H1.02a.18.18 0 0 1-.18-.18v-8.1h15.32zM15.98 1H1.02C.46 1 0 1.46 0 2.02v10.96C0 13.54.46 14 1.02 14h14.96c.56 0 1.02-.46 1.02-1.02V2.02C17 1.46 16.54 1 15.98 1z"/></svg>