<svg xmlns="http://www.w3.org/2000/svg" width="16" height="17" viewBox="0 0 16 17"><path fill="#253756" d="M16 12.67v1.38c0 1.08-.88 1.95-1.95 1.95H1.95A1.95 1.95 0 0 1 0 14.05v-1.38c0-.64.32-1.5 1.84-1.94l1.81-.5a.4.4 0 0 1 .21.76l-1.8.5c-1.27.37-1.27.98-1.27 1.18v1.38c0 .64.52 1.16 1.16 1.16h12.1c.64 0 1.16-.52 1.16-1.16v-1.38c0-.54-.43-.94-1.27-1.18l-1.72-.48a.4.4 0 0 1 .21-.76l1.73.48c1.52.44 1.84 1.3 1.84 1.94zM4.29 4.54a3.75 3.75 0 0 1 7.49 0v2.2a3.75 3.75 0 0 1-7.5 0zm3.74 6.75c2.5 0 4.54-2.04 4.54-4.54v-2.2a4.55 4.55 0 0 0-9.07 0v2.2c0 2.5 2.03 4.54 4.53 4.54z"/></svg>