<svg xmlns="http://www.w3.org/2000/svg" width="16" height="19" viewBox="0 0 16 19"><path fill="#253756" d="M14.05 9.22c0 5.68-5.59 7.58-6.55 7.87C6.6 16.8.95 14.84.95 9.22V3.16c1.7-.03 5.27-.25 6.56-1.59.56.58 1.62 1.01 3.18 1.28 1.31.23 2.66.3 3.36.31zm.81-6.82a.48.48 0 0 0-.34-.13h-.04c-2.51 0-6.5-.5-6.5-1.82C7.98.2 7.77 0 7.51 0c-.27 0-.48.2-.48.45 0 .9-1.8 1.34-2.88 1.53-1.63.28-3.31.3-3.63.3H.48a.5.5 0 0 0-.34.12.43.43 0 0 0-.14.32v6.5c0 6.76 7.3 8.74 7.37 8.76a.5.5 0 0 0 .26 0c.07-.02 7.37-2 7.37-8.76v-6.5a.43.43 0 0 0-.14-.32zM6 10.7l4.73-4.45a.5.5 0 0 1 .67 0c.19.17.19.45 0 .63L6 11.96 3.6 9.7a.43.43 0 0 1 0-.63.5.5 0 0 1 .67 0z"/></svg>